<svg id="Delete" xmlns="http://www.w3.org/2000/svg" width="9.149" height="11.76" viewBox="0 0 9.149 11.76">
  <path id="Path_2568" data-name="Path 2568" d="M126.175.71h1.966v.331h.71V.664A.664.664,0,0,0,128.187,0h-2.059a.664.664,0,0,0-.663.664v.377h.71Zm0,0" transform="translate(-122.583 0)" fill="#e90e0e"/>
  <path id="Path_2569" data-name="Path 2569" d="M47.467,167.75H40.8a.313.313,0,0,0-.312.338l.557,6.889a.74.74,0,0,0,.737.681h4.7a.74.74,0,0,0,.737-.681l.557-6.889a.312.312,0,0,0-.312-.338Zm-5.05,7.173h-.022a.355.355,0,0,1-.354-.333l-.349-5.655a.355.355,0,0,1,.709-.044l.349,5.655A.355.355,0,0,1,42.417,174.923Zm2.077-.354a.355.355,0,0,1-.71,0v-5.655a.355.355,0,0,1,.71,0Zm2.085-5.634-.333,5.655a.355.355,0,0,1-.354.334H45.87a.355.355,0,0,1-.333-.375l.333-5.655a.355.355,0,1,1,.709.042Zm0,0" transform="translate(-39.56 -163.897)" fill="#e90e0e"/>
  <path id="Path_2570" data-name="Path 2570" d="M9.134,77.219l-.233-.7a.451.451,0,0,0-.428-.308H.677a.451.451,0,0,0-.428.308l-.233.7a.293.293,0,0,0,.278.385H8.856a.289.289,0,0,0,.155-.045.292.292,0,0,0,.123-.341Zm0,0" transform="translate(0 -74.461)" fill="#e90e0e"/>
</svg>
